# AST/ASF file generated using VICON BodyLanguage
# -----------------------------------------------
:version 1.10
:name VICON
:units
  mass 1.0
  length 0.45
  angle deg
:documentation
   .ast/.asf automatically generated from VICON data using
   VICON BodyBuilder and BodyLanguage model FoxedUp or BRILLIANT.MOD
:root
   order TX TY TZ RX RY RZ
   axis XYZ
   position 0 0 0  
   orientation 0 0 0 
:bonedata
  begin
     id 1 
     name lhipjoint
     direction 0.734343 -0.627749 0.258209 
     length 2.5437 
     axis 0 0 0  XYZ
  end
  begin
     id 2 
     name lfemur
     direction 0.34202 -0.939693 0  
     length 6.7391  
     axis 0 0 20  XYZ
    dof rx ry rz
    limits (-160.0 20.0)
           (-70.0 70.0)
           (-60.0 70.0)
  end
  begin
     id 3 
     name ltibia
     direction 0.34202 -0.939693 0   
     length 7.21536   
     axis 0 0 20   XYZ
    dof rx
    limits (-10.0 170.0)
  end
  begin
     id 4 
     name lfoot
     direction 0.0489572 -0.134509 0.989702   
     length 1.61313   
     axis -90 7.62852e-016 20   XYZ
    dof rx rz
    limits (-45.0 90.0)
           (-70.0 20.0)
  end
  begin
     id 5 
     name ltoes
     direction 1.53451e-011 -4.21692e-011 1   
     length 0.823104   
     axis -90 7.62852e-016 20   XYZ
    dof rx
    limits (-90.0 20.0)
  end
  begin
     id 6 
     name rhipjoint
     direction -0.746398 -0.615468 0.253157   
     length 2.59446  
     axis 0 0 0  XYZ 
  end
  begin
     id 7 
     name rfemur
     direction -0.34202 -0.939693 0   
     length 6.7075   
     axis 0 0 -20   XYZ
    dof rx ry rz
    limits (-160.0 20.0)
           (-70.0 70.0)
           (-70.0 60.0)
  end
  begin
     id 8 
     name rtibia
     direction -0.34202 -0.939693 0   
     length 7.27262   
     axis 0 0 -20   XYZ
    dof rx
    limits (-10.0 170.0)
 end
 begin
     id 9 
     name rfoot
     direction -0.0455203 -0.125066 0.991104   
     length 1.91095  
     axis -90 -7.62852e-016 -20   XYZ
    dof rx rz
    limits (-45.0 90.0)
           (-20.0 70.0)
  end
  begin
     id 10 
     name rtoes
     direction -1.53601e-011 -4.21913e-011 1   
     length 0.969037   
     axis -90 -7.62852e-016 -20   XYZ
    dof rx
    limits (-90.0 20.0)
  end
  begin
     id 11 
     name lowerback
     direction 0.0181546 0.999122 -0.0377542   
     length 1.99916   
     axis 0 0 0   XYZ
    dof rx ry rz
    limits (-20.0 45.0)
           (-30.0 30.0)
           (-30.0 30.0)
  end
  begin
     id 12 
     name upperback
     direction 0.0203486 0.99589 0.0882534   
     length 1.951   
     axis 0 0 0   XYZ
    dof rx ry rz
    limits (-20.0 45.0)
           (-30.0 30.0)
           (-30.0 30.0)
  end
  begin
     id 13 
     name thorax
     direction 0.0131685 0.994241 0.106355   
     length 1.97461   
     axis 0 0 0   XYZ
    dof rx ry rz
    limits (-20.0 45.0)
           (-30.0 30.0)
           (-30.0 30.0)
  end
  begin
     id 14 
     name lowerneck
     direction -0.0281395 0.999325 0.023617   
     length 1.7959   
     axis 0 0 0   XYZ
    dof rx ry rz
    limits (-20.0 45.0)
           (-30.0 30.0)
           (-30.0 30.0)
  end
  begin
     id 15 
     name upperneck
     direction 0.0288721 0.991984 -0.123019   
     length 1.79917   
     axis 0 0 0   XYZ
    dof rx ry rz
    limits (-20.0 45.0)
           (-30.0 30.0)
           (-30.0 30.0)
  end
  begin
     id 16
     name head
     direction 0.0133797 0.998944 -0.0439492  
     length 1.80902  
     axis 0 0 0   XYZ
    dof rx ry rz
    limits (-20.0 45.0)
           (-30.0 30.0)
           (-30.0 30.0)
  end
  begin
     id 17 
     name lclavicle
     direction 0.919195 0.377107 0.113449  
     length 3.17815  
     axis 0 0 0   XYZ
    dof ry rz
    limits (-20.0 10.0)
           (0.0 20.0)
  end
  begin
     id 18 
     name lhumerus
     direction 1 -4.48959e-011 2.13129e-027   
     length 4.84137   
     axis 180 -30 -90   XYZ
    dof rx ry rz
    limits (-60.0 90.0)
           (-90.0 90.0)
           (-90.0 90.0)
  end
  begin
     id 19
     name lradius
     direction 1 -4.48957e-011 -6.30627e-028   
     length 3.2452   
     axis 180 -30 -90   XYZ
    dof rx
    limits (-10.0 170.0)
  end
  begin
     id 20
     name lwrist
     direction 1 -4.4901e-011 9.13299e-027   
     length 1.6226   
     axis -6.84618e-015 90 90   XYZ
    dof ry
    limits (-180.0 0.0)
 end
  begin
     id 21 
     name lhand
     direction 1 -4.48816e-011 1.82293e-026   
     length 0.521221   
     axis -1.16502e-014 90 90   XYZ
    dof rx rz
    limits (-90.0 90.0)
           (-45.0 45.0)
  end
  begin
     id 22 
     name lfingers
     direction 1 -4.49108e-011 3.65687e-026   
     length 0.420221   
     axis -2.33008e-014 90 90   XYZ
    dof rx
    limits (0.0 90.0)
  end
  begin
     id 23
     name lthumb
     direction 0.707107 -6.34943e-011 0.707107   
     length 0.603356   
     axis -90 45 5.69224e-014   XYZ
    dof rx rz
    limits (-45.0 45.0)
           (-45.0 45.0)
  end
  begin
     id 24 
     name rclavicle
     direction -0.90847 0.38596 0.160368   
     length 3.12973  
     axis 0 0 0   XYZ 
    dof ry rz
    limits (-10.0 20.0)
           (-20.0 0.0)
  end
  begin
     id 25 
     name rhumerus
     direction -1 -4.48974e-011 4.47268e-028  
     length 4.72284   
     axis 180 30 90   XYZ
    dof rx ry rz
    limits (-90.0 60.0)
           (-90.0 90.0)
           (-90.0 90.0)
  end
  begin
     id 26 
     name rradius
     direction -1 -4.48969e-011 3.43203e-027   
     length 3.23459   
     axis 180 30 90   XYZ
    dof rx
    limits (-10.0 170.0)
  end
  begin
     id 27 
     name rwrist
     direction -1 -4.48969e-011 9.12911e-027   
     length 1.6173   
     axis -6.84618e-015 -90 -90   XYZ
    dof ry
    limits (-180.0 0.0)
  end
  begin
     id 28
     name rhand
     direction -1 -4.49194e-011 1.83006e-026   
     length 0.307416   
     axis -1.16502e-014 -90 -90   XYZ
    dof rx rz
    limits (-90.0 90.0)
           (-45.0 45.0)
  end
  begin
     id 29
     name rfingers
     direction -1 -4.48423e-011 3.63103e-026   
     length 0.247847   
     axis -2.33008e-014 -90 -90   XYZ
    dof rx
    limits (0.0 90.0)
  end
  begin
     id 30
     name rthumb
     direction -0.707107 -6.34802e-011 0.707107   
     length 0.35586   
     axis -90 -45 -5.69224e-014   XYZ
    dof rx rz
    limits (-45.0 45.0)
           (-45.0 45.0)
  end
:hierarchy
  begin
    root lhipjoint rhipjoint lowerback
    lhipjoint lfemur
    lfemur ltibia
    ltibia lfoot
    lfoot ltoes
    rhipjoint rfemur
    rfemur rtibia
    rtibia rfoot
    rfoot rtoes
    lowerback upperback
    upperback thorax
    thorax lowerneck lclavicle rclavicle
    lowerneck upperneck
    upperneck head
    lclavicle lhumerus
    lhumerus lradius
    lradius lwrist
    lwrist lhand lthumb
    lhand lfingers
    rclavicle rhumerus
    rhumerus rradius
    rradius rwrist
    rwrist rhand rthumb
    rhand rfingers
  end

#!OML:ASF H:\Terrain\Patient Classification 1\Animal1\Tuesday\Animal1.ASF
:FULLY-SPECIFIED
:DEGREES
1291
root 11.6644 15.4759 -13.2432 33.4703 -37.0905 -12.3626
lowerback 5.56096 -0.949627 7.61813
upperback -7.45724 -0.0973281 4.96541
thorax -11.2179 -0.476986 1.14346
lowerneck 1.17059 1.28393 -5.66815
upperneck 4.94269 1.41199 7.24071
head 1.27195 0.689736 3.35347
rclavicle 1.07841e-014 1.55052e-014
rhumerus -50.5554 29.8206 -103.293
rradius 58.5694
rwrist -1.38991
rhand -15.6421 22.2543
rfingers 7.12502
rthumb 10.5454 -7.46112
lclavicle 1.07841e-014 1.55052e-014
lhumerus -52.3282 -3.18394 90.9291
lradius 51.4886
lwrist -33.416
lhand 5.316 46.2016
lfingers 7.12502
lthumb 30.6713 73.6652
rfemur -52.4761 20.7962 27.9295
rtibia 40.2145
rfoot -12.4704 -6.73191
rtoes -8.65714
lfemur -42.3714 19.1199 -4.55393
ltibia 52.0056
lfoot -28.613 19.6427
ltoes -8.24779
1292
root 11.6677 15.4748 -13.2499 33.4051 -37.1997 -12.0806
lowerback 5.38302 -0.96276 7.33115
upperback -7.40101 -0.173928 4.92068
thorax -11.0405 -0.488171 1.25605
lowerneck 0.873796 1.25935 -5.61719
upperneck 6.41968 1.3219 7.1031
head 1.81238 0.648475 3.32258
rclavicle -3.2551e-014 4.1546e-014
rhumerus -50.3901 30.0102 -103.318
rradius 58.5473
rwrist -1.44948
rhand -15.83 22.3443
rfingers 7.12502
rthumb 10.3642 -7.38026
lclavicle -3.2551e-014 4.1546e-014
lhumerus -52.1916 -3.30565 90.9618
lradius 51.52
lwrist -33.5351
lhand 5.44935 46.3195
lfingers 7.12502
lthumb 30.7985 73.7592
rfemur -52.6797 20.7122 27.6433
rtibia 40.2601
rfoot -12.5642 -6.76011
rtoes -9.317
lfemur -42.5405 19.0337 -4.87387
ltibia 52.0393
lfoot -28.4761 19.8669
ltoes -8.59215
1293
root 11.6712 15.4735 -13.2571 33.3823 -37.2534 -12.0353
lowerback 5.30325 -0.928459 7.2245
upperback -7.29511 -0.155489 4.90872
thorax -10.8678 -0.466008 1.29093
lowerneck 0.80439 1.15665 -5.78093
upperneck 7.57406 1.13043 7.07323
head 2.21987 0.547131 3.36417
rclavicle -2.66371e-014 4.96962e-015
rhumerus -50.1861 30.1279 -103.264
rradius 58.535
rwrist -1.43154
rhand -15.9892 22.2472
rfingers 7.12502
rthumb 10.2106 -7.48503
lclavicle -2.66371e-014 4.96962e-015
lhumerus -52.0415 -3.58227 91.0737
lradius 51.5221
lwrist -33.5489
lhand 5.19515 46.3072
lfingers 7.12502
lthumb 30.5561 73.7923
rfemur -52.752 20.72 27.5769
rtibia 40.2825
rfoot -12.5923 -6.73965
rtoes -9.30909
lfemur -42.5942 19.0082 -4.93645
ltibia 52.0759
lfoot -28.3798 20.034
ltoes -8.8488
1294
root 11.6738 15.4724 -13.2616 33.32 -37.1662 -12.182
lowerback 5.28209 -0.952793 7.48289
upperback -7.08765 -0.182086 4.855
thorax -10.6258 -0.493054 1.08267
lowerneck 0.611518 1.08675 -5.68624
upperneck 8.79764 0.99036 6.91326
head 2.67513 0.475483 3.31633
rclavicle -9.10434e-014 -1.43125e-014
rhumerus -49.8755 30.2869 -103.329
rradius 58.434
rwrist -1.27938
rhand -16.1295 22.3633
rfingers 7.12502
rthumb 10.0752 -7.37549
lclavicle -9.10434e-014 -1.43125e-014
lhumerus -51.8032 -3.86263 91.0022
lradius 51.5777
lwrist -33.3331
lhand 5.09665 46.4035
lfingers 7.12502
lthumb 30.4622 73.906
rfemur -52.5943 20.7661 27.7471
rtibia 40.2492
rfoot -12.4774 -6.77382
rtoes -8.86073
lfemur -42.5022 18.9796 -4.72572
ltibia 52.1273
lfoot -28.2487 20.1746
ltoes -9.42357
1295
root 11.6771 15.4711 -13.2642 33.2644 -37.0536 -12.3612
lowerback 5.33088 -0.977427 7.77948
upperback -6.89507 -0.195408 4.81343
thorax -10.4447 -0.516347 0.867864
lowerneck 0.317423 1.0447 -5.58594
upperneck 10.135 0.875963 6.88158
head 3.19494 0.420068 3.31911
rclavicle 8.54774e-014 4.57205e-015
rhumerus -49.6607 30.4907 -103.417
rradius 58.6086
rwrist -1.4179
rhand -15.6669 21.4876
rfingers 7.12502
rthumb 10.5215 -8.22911
lclavicle 8.54774e-014 4.57205e-015
lhumerus -51.5085 -4.06209 90.8364
lradius 51.72
lwrist -33.5421
lhand 5.79152 46.7732
lfingers 7.12502
lthumb 31.1246 74.1508
rfemur -52.3659 20.7544 27.9957
rtibia 40.1734
rfoot -12.3722 -6.73243
rtoes -8.31708
lfemur -42.3903 18.9586 -4.46406
ltibia 52.229
lfoot -28.4501 19.9658
ltoes -9.18286
1296
root 11.6833 15.4673 -13.2693 33.3543 -36.9478 -12.7055
lowerback 5.63207 -0.889117 7.7482
upperback -6.84426 -0.0244158 5.09812
thorax -10.5635 -0.420315 1.17424
lowerneck 0.165619 0.95288 -5.92122
upperneck 11.2871 0.710971 6.85311
head 3.63998 0.319752 3.40055
rclavicle -1.36167e-014 -7.37491e-014
rhumerus -49.7753 30.7829 -103.096
rradius 58.9388
rwrist -1.47221
rhand -15.3252 20.5561
rfingers 7.12502
rthumb 10.8511 -9.14357
lclavicle -1.36167e-014 -7.37491e-014
lhumerus -51.3349 -4.03918 91.1319
lradius 51.8904
lwrist -34.3247
lhand 6.39338 47.2626
lfingers 7.12502
lthumb 31.6981 74.5286
rfemur -52.1891 20.8018 28.3472
rtibia 40.1101
rfoot -12.4285 -6.61343
rtoes -7.55154
lfemur -42.3414 19.0617 -4.0943
ltibia 52.363
lfoot -28.6392 19.7517
ltoes -8.63127
1297
root 11.6903 15.459 -13.2797 33.5073 -36.7912 -12.9753
lowerback 5.43273 -0.92123 8.5288
upperback -6.55702 -0.0578116 4.78215
thorax -10.1349 -0.492464 0.388499
lowerneck 0.116274 0.935544 -5.76796
upperneck 12.193 0.572986 7.39011
head 3.54728 0.300724 3.22209
rclavicle 2.94201e-014 -4.75095e-014
rhumerus -49.1034 30.6655 -103.334
rradius 58.713
rwrist -0.971075
rhand -15.9896 21.2902
rfingers 7.12502
rthumb 10.2102 -8.44206
lclavicle 2.94201e-014 -4.75095e-014
lhumerus -50.8291 -4.59284 90.6337
lradius 51.978
lwrist -34.3351
lhand 6.106 47.5513
lfingers 7.12502
lthumb 31.4243 74.8711
rfemur -52.211 20.8653 28.5905
rtibia 40.1137
rfoot -12.5177 -6.64699
rtoes -7.33328
lfemur -42.4766 19.1482 -3.80392
ltibia 52.4674
lfoot -28.5062 19.8186
ltoes -9.10033
1298
root 11.6953 15.4545 -13.2907 33.4305 -36.7508 -12.8396
lowerback 5.38701 -0.949349 8.5899
upperback -6.37885 -0.117801 4.64688
thorax -9.91126 -0.52074 0.208052
lowerneck 0.144446 0.925208 -5.85935
upperneck 12.7752 0.503958 7.5717
head 3.71965 0.267959 3.29863
rclavicle 2.05742e-014 -1.59028e-014
rhumerus -48.5017 30.4906 -103.043
rradius 58.3643
rwrist -1.05578
rhand -15.6653 24.1774
rfingers 7.12502
rthumb 10.523 -5.53921
lclavicle 2.05742e-014 -1.59028e-014
lhumerus -50.5675 -4.76835 90.503
lradius 51.9893
lwrist -34.0272
lhand 5.78895 47.5266
lfingers 7.12502
lthumb 31.1222 74.9047
rfemur -52.32 20.8673 28.4555
rtibia 40.1496
rfoot -12.4594 -6.72448
rtoes -7.40068
lfemur -42.5953 19.052 -3.88957
ltibia 52.517
lfoot -28.4286 19.8714
ltoes -9.53761
1299
root 11.6986 15.4591 -13.2967 33.2217 -36.8113 -12.4575
lowerback 5.40644 -0.929349 8.19416
upperback -6.29043 -0.132568 4.64798
thorax -9.81514 -0.494284 0.424946
lowerneck 0.409552 0.918125 -6.12974
upperneck 13.027 0.463196 7.66043
head 3.75202 0.232758 3.37192
rclavicle 6.63941e-014 -3.97569e-015
rhumerus -48.165 30.3097 -102.512
rradius 58.3354
rwrist -1.43974
rhand -14.8 26.0817
rfingers 7.12502
rthumb 11.3577 -3.59078
lclavicle 6.63941e-014 -3.97569e-015
lhumerus -50.5312 -4.5319 90.559
lradius 52.1227
lwrist -34.0262
lhand 5.23114 47.1069
lfingers 7.12502
lthumb 30.5904 74.5856
rfemur -52.4483 20.7825 28.0987
rtibia 40.1839
rfoot -12.3227 -6.71674
rtoes -7.43119
lfemur -42.6589 18.8383 -4.22924
ltibia 52.5186
lfoot -28.5267 19.7872
ltoes -9.04975
1300
root 11.7027 15.4618 -13.2999 33.3338 -36.8049 -12.4769
lowerback 5.4581 -0.851521 7.96371
upperback -6.28146 -0.0302318 4.85151
thorax -9.82677 -0.420647 0.757371
lowerneck 0.630956 0.891292 -6.474
upperneck 13.2648 0.408936 7.67709
head 3.78926 0.185164 3.43517
rclavicle -2.75317e-014 -4.59193e-014
rhumerus -48.4007 30.4716 -102.298
rradius 58.914
rwrist -1.20011
rhand -15.5483 23.6383
rfingers 7.12502
rthumb 10.6359 -6.07254
lclavicle -2.75317e-014 -4.59193e-014
lhumerus -50.626 -4.16318 90.7705
lradius 52.3907
lwrist -34.1135
lhand 4.56198 46.5217
lfingers 7.12502
lthumb 29.9521 74.1176
rfemur -52.5834 20.7863 28.0688
rtibia 40.2043
rfoot -12.2659 -6.74251
rtoes -8.02853
lfemur -42.7794 18.8406 -4.24793
ltibia 52.5099
lfoot -28.5636 19.6557
ltoes -8.67543
1301
root 11.7077 15.4568 -13.3026 33.5674 -36.7654 -12.782
lowerback 5.57877 -0.819512 7.99626
upperback -6.23937 0.0418953 5.05674
thorax -9.85099 -0.3802 0.951707
lowerneck 0.395697 0.888037 -6.68821
upperneck 13.9618 0.376334 7.73537
head 4.03961 0.163323 3.49927
rclavicle 8.52289e-014 -9.93923e-015
rhumerus -48.7534 30.7884 -102.352
rradius 59.4062
rwrist -0.660133
rhand -16.7522 21.2362
rfingers 7.12502
rthumb 9.47447 -8.5308
lclavicle 8.52289e-014 -9.93923e-015
lhumerus -50.6862 -3.82298 90.8095
lradius 52.6998
lwrist -34.2744
lhand 4.61859 45.659
lfingers 7.12502
lthumb 30.0061 73.2452
rfemur -52.5945 20.877 28.302
rtibia 40.1852
rfoot -12.2427 -6.84644
rtoes -8.86417
lfemur -42.853 18.9935 -4.00755
ltibia 52.529
lfoot -28.4611 19.7173
ltoes -9.17195
1302
root 11.7099 15.4565 -13.304 33.4555 -36.832 -12.7049
lowerback 5.51409 -0.900258 8.53748
upperback -6.01059 -0.0722601 4.56276
thorax -9.5702 -0.479119 0.126321
lowerneck 0.241245 0.943628 -6.34412
upperneck 14.2811 0.375146 8.13207
head 4.15833 0.199604 3.57065
rclavicle 7.67806e-014 -3.77691e-014
rhumerus -48.4261 30.4134 -102.829
rradius 59.541
rwrist -0.643784
rhand -16.731 20.9477
rfingers 7.12502
rthumb 9.49488 -8.81838
lclavicle 7.67806e-014 -3.77691e-014
lhumerus -50.5057 -4.0892 89.9884
lradius 53.011
lwrist -34.4186
lhand 4.66905 45.0708
lfingers 7.12502
lthumb 30.0543 72.6483
rfemur -52.4901 20.8827 28.2334
rtibia 40.132
rfoot -12.2121 -6.8201
rtoes -8.3856
lfemur -42.7697 18.9747 -4.08501
ltibia 52.5231
lfoot -28.3467 19.8827
ltoes -9.43815
1303
root 11.7124 15.4571 -13.3099 33.4994 -36.8625 -12.7131
lowerback 5.63218 -0.899563 8.63949
upperback -5.95574 -0.0584971 4.43351
thorax -9.58038 -0.482564 -0.0703765
lowerneck 0.508575 0.945985 -6.19321
upperneck 14.2004 0.352767 8.19544
head 4.09052 0.192487 3.56142
rclavicle -1.91579e-014 4.29375e-014
rhumerus -48.3253 30.0235 -102.767
rradius 59.8649
rwrist -1.30111
rhand -15.4838 21.2129
rfingers 7.12502
rthumb 10.6981 -8.49468
lclavicle -1.91579e-014 4.29375e-014
lhumerus -50.6048 -4.0806 89.7821
lradius 53.2911
lwrist -34.1782
lhand 4.6521 46.1996
lfingers 7.12502
lthumb 30.0381 73.78
rfemur -52.5347 20.9281 28.2029
rtibia 40.071
rfoot -12.1626 -6.69
rtoes -7.28097
lfemur -42.81 19.0397 -4.11685
ltibia 52.4986
lfoot -28.2615 19.8915
ltoes -9.59946
1304
root 11.7159 15.4586 -13.3164 33.7499 -36.8369 -12.8226
lowerback 5.79073 -0.872616 8.63093
upperback -6.05308 0.00875281 4.49165
thorax -9.77986 -0.455025 -0.00522102
lowerneck 0.697534 0.906081 -6.14824
upperneck 14.2563 0.293609 8.0991
head 4.08131 0.15644 3.52173
rclavicle 1.9456e-014 -3.11098e-014
rhumerus -48.6051 29.8098 -102.69
rradius 60.1041
rwrist -1.33615
rhand -15.0227 21.2497
rfingers 7.12502
rthumb 11.1428 -8.43446
lclavicle 1.9456e-014 -3.11098e-014
lhumerus -50.9625 -3.97801 89.9409
lradius 53.5756
lwrist -33.5178
lhand 4.63113 47.4878
lfingers 7.12502
lthumb 30.0181 75.0718
rfemur -52.7396 20.967 28.2396
rtibia 40.0156
rfoot -12.113 -6.67423
rtoes -7.21771
lfemur -43.0312 19.1396 -4.08088
ltibia 52.4649
lfoot -28.2653 19.7412
ltoes -9.16653
